<svg xmlns="http://www.w3.org/2000/svg" fill="none" stroke="currentColor" stroke-linecap="round" stroke-linejoin="round" aria-labelledby="brossura-titolo" role="img" viewBox="0 0 240 300"><title id="brossura-titolo">Brossura cucita a filo refe: percorso del filo tra tre segnature</title><path id="brossura-carta" stroke-width="1" d="M92 46v212m9.6-224.6L92 46l27.6-12.6M128 46v212m9.6-224.6L128 46l27.6-12.6M164 46v212m9.6-224.6L164 46l27.6-12.6" opacity=".5"/><path id="filo-brossura" stroke-width="2.4" d="M16 0v16l76 10v42l12.4-8.4v60L92 128v52l12.4-8.4v60L92 240h36l12.4-8.4v-60L128 180v-52l12.4-8.4v-60L128 68 92 55a4 4 0 1 1 0-8 4 4 0 1 1 0 8l72 13 12.4-8.4v60L164 128v52l12.4-8.4v60L164 240l-54 8a6 6 0 1 1 0-12 6 6 0 1 1 0 12l-6 36-88 12v4"/><g id="brossura-fori" stroke-width="1.2"><circle cx="92" cy="68" r="3.2"/><circle cx="92" cy="128" r="3.2"/><circle cx="92" cy="180" r="3.2"/><circle cx="92" cy="240" r="3.2"/><circle cx="128" cy="68" r="3.2"/><circle cx="128" cy="128" r="3.2"/><circle cx="128" cy="180" r="3.2"/><circle cx="128" cy="240" r="3.2"/><circle cx="164" cy="68" r="3.2"/><circle cx="164" cy="128" r="3.2"/><circle cx="164" cy="180" r="3.2"/><circle cx="164" cy="240" r="3.2"/></g><g id="brossura-numeri" fill="currentColor" stroke="none" font-family="Hanken Grotesk,system-ui,sans-serif" font-size="10" font-weight="600" text-anchor="middle"><text x="66" y="71.5">1</text><text x="66" y="131.5">2</text><text x="66" y="183.5">3</text><text x="66" y="243.5">4</text></g></svg>